<svg xmlns="http://www.w3.org/2000/svg" xmlns:xlink="http://www.w3.org/1999/xlink" viewBox="0 0 768 1024">

  <g id="candado" clip-path="url(#clip-candado)">
    <g id="Grupo_267" data-name="Grupo 267" transform="translate(60 125)">
      <path id="Trazado_484" data-name="Trazado 484" d="M399.463-400.842H462.31V-608.656c0-90.7,73.793-164.5,164.5-164.5s164.5,73.793,164.5,164.5v207.813h62.847V-608.656C854.151-734.014,752.165-836,626.807-836S399.463-734.014,399.463-608.656v207.813" transform="translate(-303.259 836)" fill="#71706e"/>
      <path id="Trazado_485" data-name="Trazado 485" d="M331.106-183.725a24.369,24.369,0,0,0,24.369,24.369H953.834A24.368,24.368,0,0,0,978.2-183.725V-572.5a24.368,24.368,0,0,0-24.369-24.369H355.475A24.368,24.368,0,0,0,331.106-572.5v388.779" transform="translate(-331.106 933.416)" fill="#f1ca2f"/>
      <path id="Trazado_486" data-name="Trazado 486" d="M334.42-234.362V-472.574C531.552-305.79,815.785-243.125,976.852-220.128a24.283,24.283,0,0,1-19.7,10.135H358.789a24.368,24.368,0,0,1-24.369-24.369" transform="translate(-334.42 984.053)" fill="#eab530"/>
      <path id="Trazado_487" data-name="Trazado 487" d="M523-472.775a53.473,53.473,0,0,1,53.474-53.473,53.473,53.473,0,0,1,53.473,53.473,53.341,53.341,0,0,1-21.674,42.921L625.3-308.933H527.659l17.019-120.921A53.341,53.341,0,0,1,523-472.775" transform="translate(-252.93 962.186)" fill="#57585a"/>
      <path id="Trazado_488" data-name="Trazado 488" d="M471.934-555.665v83.721c-2.215-35.55-19.325-112.91-126.332-112.91h97.142a29.276,29.276,0,0,1,29.19,29.189" transform="translate(154.761 938.312)" fill="#f7db5e"/>
    </g>
  </g>
</svg>
