<svg viewBox="0 0 5334 1250" version="1.1" xmlns="http://www.w3.org/2000/svg" xmlns:xlink="http://www.w3.org/1999/xlink" xml:space="preserve" xmlns:serif="http://www.serif.com/" style="fill-rule:evenodd;clip-rule:evenodd;stroke-linejoin:round;stroke-miterlimit:2;"><rect x="-3.899" y="3.543" width="5338.55" height="1249.63" style="fill:none;"/><clipPath id="_clip1"><rect x="-3.899" y="3.543" width="5338.55" height="1249.63"/></clipPath><g clip-path="url(#_clip1)"><path d="M121.14,532.282c-564.563,-1010.21 -885.579,357.151 -1209.3,-10.573c-323.721,-367.725 -101.136,-922.795 261.436,-1241.98c362.572,-319.186 1256.79,-215.831 1580.51,151.894c323.721,367.724 -393.797,1528.05 -632.648,1100.66Z" style="fill:#bfdc36;fill-opacity:0.8;"/><ellipse cx="-30.958" cy="-347.319" rx="1290.55" ry="1295.06" style="fill:#475161;fill-opacity:0.8;"/><path d="M1621.78,637.709c-564.562,-1010.21 -885.579,357.152 -1209.3,-10.573c-323.721,-367.724 -101.136,-922.795 261.437,-1241.98c362.572,-319.185 1256.79,-215.83 1580.51,151.894c323.721,367.725 -393.798,1528.05 -632.649,1100.66Z" style="fill:#bfdc36;fill-opacity:0.8;"/><circle cx="1309.7" cy="-331.839" r="937.415" style="fill:#ff614c;fill-opacity:0.8;"/><path d="M1876.32,-413.196c1001.63,55.924 -201.01,-689.29 218.153,-756.339c419.163,-67.048 1071.36,224.777 1138.16,642.415c66.804,417.637 -421.732,1030.37 -840.895,1097.42c-419.163,67.048 -939.183,-1007.16 -515.422,-983.499Z" style="fill:#bfdc36;fill-opacity:0.8;"/><path d="M3955.64,-467.75c1001.63,55.924 -201.01,-689.291 218.153,-756.34c419.163,-67.048 1071.36,224.777 1138.16,642.415c66.805,417.637 -421.731,1030.38 -840.894,1097.42c-419.163,67.049 -939.184,-1007.16 -515.422,-983.498Z" style="fill:#bfdc36;fill-opacity:0.8;"/><ellipse cx="4276.13" cy="-417.829" rx="1290.55" ry="1295.06" style="fill:#475161;fill-opacity:0.8;"/><circle cx="3170.45" cy="-17.102" r="658.494" style="fill:#ff614c;fill-opacity:0.8;"/><path d="M4710.32,511.028c-564.562,-1010.21 -885.579,357.152 -1209.3,-10.573c-323.721,-367.724 -101.136,-922.794 261.436,-1241.98c362.573,-319.186 1256.79,-215.831 1580.51,151.894c323.721,367.724 -393.798,1528.05 -632.649,1100.66Z" style="fill:#bfdc36;fill-opacity:0.8;"/></g></svg>