<svg xmlns="http://www.w3.org/2000/svg" xmlns:xlink="http://www.w3.org/1999/xlink" viewBox="0 0 768 1024">
  
  <g id="Insignia" clip-path="url(#clip-Insignia)">
    <g id="Grupo_76" data-name="Grupo 76" transform="translate(23 22)">
      <path id="Trazado_213" data-name="Trazado 213" d="M304.638,202.067a40.264,40.264,0,0,1-37.632,17.322,40.719,40.719,0,0,1-33.3-24.763,40.514,40.514,0,0,1-67.8-22.07,40.777,40.777,0,0,1-41.552.414A39.982,39.982,0,0,1,111.8,161.107V481.5L305.045,355.82V202.533C304.926,202.363,304.756,202.237,304.638,202.067Z" transform="translate(55.921 498.808)" fill="#2fac66"/>
      <path id="Trazado_214" data-name="Trazado 214" d="M134.3,431.2c0-174.137,141.66-315.8,315.782-315.8V88.171a40.579,40.579,0,0,0-69.968,8.676,40.587,40.587,0,0,0-67.957,21.789,40.662,40.662,0,0,0-61.988,35.458,41.1,41.1,0,0,0-40.731,7.988h.133a40.414,40.414,0,0,0-12.448,39.659,40.562,40.562,0,0,0-42.232,57.52,40.7,40.7,0,0,0-29.37,65.1A40.64,40.64,0,0,0,110.51,394.2a40.493,40.493,0,0,0-21.39,35.458,1.944,1.944,0,0,0,.14.954c0,.133-.14.407-.14.54a40.538,40.538,0,0,0,21.242,35.731,40.628,40.628,0,0,0,14.763,69.835,40.62,40.62,0,0,0,29.1,65.235,40.563,40.563,0,0,0,41.966,57.661,40.579,40.579,0,0,0,52.905,47.78,40.38,40.38,0,0,0,7.744,24.408V680.7C182.364,622.875,134.3,532.567,134.3,431.2Z" transform="translate(-89.12 -71.884)" fill="#ffde5d"/>
      <path id="Trazado_215" data-name="Trazado 215" d="M191.639,138.521a40.664,40.664,0,0,0-5.681-20.761v41.2A40.782,40.782,0,0,0,191.639,138.521Z" transform="translate(530.285 221.551)" fill="#e5b92e"/>
      <path id="Trazado_216" data-name="Trazado 216" d="M124.355,217.162a40.777,40.777,0,0,0,41.552-.414,40.514,40.514,0,0,0,67.8,22.07,40.719,40.719,0,0,0,33.3,24.763,40.263,40.263,0,0,0,37.632-17.322c.118.17.288.3.407.466v-26.22A314.057,314.057,0,0,1,111.8,154.2v51.1A39.983,39.983,0,0,0,124.355,217.162Z" transform="translate(55.921 454.616)" fill="#ffde5d"/>
      <path id="Trazado_217" data-name="Trazado 217" d="M108.764,393.571c0-166.674,135.58-302.269,302.247-302.277V77.767c-174.122.007-315.782,141.667-315.782,315.8,0,101.365,48.061,191.673,122.533,249.5V625.776C151.2,570.282,108.764,486.793,108.764,393.571Z" transform="translate(-50.045 -34.254)" fill="#fff"/>
      <path id="Trazado_218" data-name="Trazado 218" d="M111.8,151.86v17.292A314.057,314.057,0,0,0,305.045,235.46V221.924A300.864,300.864,0,0,1,111.8,151.86Z" transform="translate(55.921 439.662)" fill="#fff"/>
      <path id="Trazado_219" data-name="Trazado 219" d="M375.9,545.121V431.863L262.97,513.909l43.142-132.77-112.94-82.061h139.6L375.9,166.353v-83.1c-151.97.007-275.177,123.221-275.177,275.206A274.27,274.27,0,0,0,182.647,554.27v-9.149Z" transform="translate(-14.93 0.855)" fill="#ffde5d"/>
      <path id="Trazado_220" data-name="Trazado 220" d="M305.045,145.7H111.8v9.149a274.271,274.271,0,0,0,193.249,79.391Z" transform="translate(55.921 400.274)" fill="#ffde5d"/>
      <path id="Trazado_221" data-name="Trazado 221" d="M110.594,381.873c0-159.2,129.523-288.734,288.712-288.742V79.6C232.639,79.6,97.059,215.2,97.059,381.873c0,93.222,42.44,176.711,109,232.2V595.764C147.6,542.888,110.594,466.715,110.594,381.873Z" transform="translate(-38.34 -22.555)" fill="#e5b92e"/>
      <path id="Trazado_222" data-name="Trazado 222" d="M111.8,149.384V167.7a300.864,300.864,0,0,0,193.249,70.064V224.226C230.683,224.219,163.03,195.721,111.8,149.384Z" transform="translate(55.921 423.825)" fill="#e5b92e"/>
      <path id="Trazado_223" data-name="Trazado 223" d="M98.889,370.168c0,84.842,37.011,161.016,95.463,213.892V565.975a274.27,274.27,0,0,1-81.928-195.808c0-151.985,123.206-275.2,275.177-275.206V81.426C228.412,81.433,98.889,210.964,98.889,370.168Z" transform="translate(-26.635 -10.85)" fill="#e5b92e"/>
      <path id="Trazado_224" data-name="Trazado 224" d="M111.8,146.939v18.084c51.234,46.337,118.887,74.835,193.249,74.842V226.33A274.271,274.271,0,0,1,111.8,146.939Z" transform="translate(55.921 408.186)" fill="#e5b92e"/>
      <path id="Trazado_225" data-name="Trazado 225" d="M252.815,227.219h-139.6l112.944,82.06L183.021,442.045,295.943,360V94.491Z" transform="translate(65.022 72.718)" fill="#e5b92e"/>
      <path id="Trazado_226" data-name="Trazado 226" d="M331.195,481.9V161.044a39.7,39.7,0,0,1-54.673,12.189,40.673,40.673,0,0,1-67.949,21.93,40.734,40.734,0,0,1-33.431,24.77c-1.361.126-2.707.266-4.193.266a40.688,40.688,0,0,1-33.024-17.263V356.223l.015-.007Z" transform="translate(223.042 498.405)" fill="#1e7c44"/>
      <path id="Trazado_227" data-name="Trazado 227" d="M493.2,452.189v-41.2a40.738,40.738,0,0,0-15.436-14.962,40.617,40.617,0,0,0-14.748-69.843,40.7,40.7,0,0,0,5.007-41.271,40.266,40.266,0,0,0-33.838-23.956,40.728,40.728,0,0,0-41.818-57.935,40.632,40.632,0,0,0-52.92-47.913,40.623,40.623,0,0,0-61.714-35.864,40.615,40.615,0,0,0-67.816-22.2,40.637,40.637,0,0,0-70.908-7.714c-.333-.481-.74-.91-1.087-1.368v27.225h.015c174.137,0,315.8,141.667,315.8,315.8,0,101.373-48.068,191.688-122.541,249.5a314.134,314.134,0,0,1-193.256,66.3h-.015v26.22a40.688,40.688,0,0,0,33.024,17.263c1.486,0,2.833-.141,4.193-.266a40.734,40.734,0,0,0,33.431-24.77,40.673,40.673,0,0,0,67.949-21.93,41.03,41.03,0,0,0,61.84-35.724,40.248,40.248,0,0,0,40.738-8.121v.133a40.7,40.7,0,0,0,12.315-39.659,40.681,40.681,0,0,0,42.107-57.661,40.5,40.5,0,0,0,29.1-65.094,40.64,40.64,0,0,0,15.014-69.835A41.045,41.045,0,0,0,493.2,452.189Z" transform="translate(223.042 -71.681)" fill="#e5b92e"/>
      <path id="Trazado_228" data-name="Trazado 228" d="M137.939,77.767h-.015V91.295h.015c166.674,0,302.269,135.6,302.269,302.277,0,93.23-42.454,176.718-109.013,232.212A300.933,300.933,0,0,1,137.939,695.84h-.015v13.535h.015a314.134,314.134,0,0,0,193.256-66.3c74.473-57.816,122.541-148.132,122.541-249.5C453.736,219.434,312.076,77.767,137.939,77.767Z" transform="translate(223.042 -34.254)" fill="#c6c6c6"/>
      <path id="Trazado_229" data-name="Trazado 229" d="M137.939,166.316l43.142,132.762h139.6L207.737,381.139l43.142,132.77-112.94-82.054-.015.007V545.121H331.195v9.156a274.287,274.287,0,0,0,81.943-195.815c0-151.992-123.214-275.206-275.2-275.206h-.015v83.1Z" transform="translate(223.042 0.855)" fill="#e5b92e"/>
      <path id="Trazado_230" data-name="Trazado 230" d="M137.924,145.7v88.54h.015a274.252,274.252,0,0,0,193.256-79.384V145.7Z" transform="translate(223.042 400.274)" fill="#e5b92e"/>
      <path id="Trazado_231" data-name="Trazado 231" d="M137.939,79.6h-.015v27.07h.015c151.985,0,275.2,123.214,275.2,275.206a275.388,275.388,0,0,1-275.2,275.2h-.015v27.07h.015a300.933,300.933,0,0,0,193.256-70.057C397.754,558.591,440.208,475.1,440.208,381.873,440.208,215.2,304.613,79.6,137.939,79.6Z" transform="translate(223.042 -22.555)" fill="#c19721"/>
      <path id="Trazado_232" data-name="Trazado 232" d="M250.883,442.08,207.741,309.313l112.944-82.06h-139.6L137.938,94.486l-.015.04v265.51l.015-.007Z" transform="translate(223.04 72.683)" fill="#c19721"/>
    </g>
  </g>
</svg>
